<?xml version="1.0" encoding="utf-8"?>
<svg viewBox="0 0 576 512" xmlns="http://www.w3.org/2000/svg" xmlns:xlink="http://www.w3.org/1999/xlink">
<style>:root>svg{display:none}:root>svg:target{display:block}</style>
<svg fill="#fff" aria-hidden="true" data-prefix="fas" data-icon="volume-down" class="asvg-inline--fa afa-volume-down afa-w-12" viewBox="0 0 576 512" id="volume-down" xmlns="http://www.w3.org/2000/svg">
  <path d="M215.03 72.04L126.06 161H24c-13.26 0-24 10.74-24 24v144c0 13.25 10.74 24 24 24h102.06l88.97 88.95c15.03 15.03 40.97 4.47 40.97-16.97V89.02c0-21.47-25.96-31.98-40.97-16.98zm123.2 108.08c-11.58-6.33-26.19-2.16-32.61 9.45-6.39 11.61-2.16 26.2 9.45 32.61C327.98 229.28 336 242.62 336 257c0 14.38-8.02 27.72-20.92 34.81-11.61 6.41-15.84 21-9.45 32.61 6.43 11.66 21.05 15.8 32.61 9.45 28.23-15.55 45.77-45 45.77-76.88s-17.54-61.32-45.78-76.87z"/>
</svg>
<svg fill="#fff" class="bsvg-inline--fa bfa-volume-up bfa-w-18" viewBox="0 0 576 512" id="volume-middle" xmlns="http://www.w3.org/2000/svg">
  <g stroke="null">
    <path d="M212.902 103.71l-88.97 79.22H21.872c-13.26 0-24 9.565-24 21.374v128.247c0 11.8 10.74 21.374 24 21.374h102.06l88.97 79.22c15.03 13.385 40.97 3.98 40.97-15.114V118.824c0-19.112-25.96-28.481-40.97-15.113zm264.97 164.718c0-56.58-32.06-108.6-85.77-139.148-11.19-6.359-26.03-3.402-33.12 6.644s-3.78 23.342 7.41 29.71c39.75 22.613 63.48 61.033 63.48 102.794s-23.73 80.18-63.48 102.793c-11.19 6.359-14.5 19.656-7.41 29.71 6.51 9.227 21.12 13.484 33.12 6.644 53.71-30.547 85.77-82.559 85.77-139.147zm-169.86-60.68c2.121 24.17-27.24-12.604 3.417 17.414 30.658 30.018 22.443 30.468 22.443 43.266 0 12.806-8.02 24.687-20.92 31.001-11.61 5.71-15.84 18.703-9.45 29.043 6.43 10.384 21.05 14.072 32.61 8.416 28.23-13.849 45.77-40.077 45.77-68.47s-17.54-54.611-45.78-68.451l-28.09 7.782z"/>
    <path d="M213.623 102.213l-88.732 79.851H23.104c-13.224 0-23.935 9.64-23.935 21.543v129.255c0 11.893 10.71 21.543 23.935 21.543h101.787l88.732 79.842c14.99 13.49 40.86 4.012 40.86-15.233v-301.56c0-19.271-25.89-28.705-40.86-15.241zm122.87 97.013c-11.549-5.682-26.12-1.939-32.523 8.483-6.373 10.42-2.154 23.517 9.425 29.27 12.875 6.374 20.874 18.348 20.874 31.255 0 12.908-7.999 24.882-20.864 31.246-11.579 5.754-15.798 18.85-9.425 29.271 6.413 10.466 20.994 14.182 32.523 8.482 28.154-13.957 45.647-40.392 45.647-69.008s-17.493-55.041-45.657-68.999z"/>
  </g>
</svg>
<svg fill="#fff" aria-hidden="true" data-prefix="fas" data-icon="volume-mute" class="csvg-inline--fa cfa-volume-mute cfa-w-16" viewBox="0 0 576 512" id="volume-mute" xmlns="http://www.w3.org/2000/svg">
  <path d="M215.03 71.05L126.06 160H24c-13.26 0-24 10.74-24 24v144c0 13.25 10.74 24 24 24h102.06l88.97 88.95c15.03 15.03 40.97 4.47 40.97-16.97V88.02c0-21.46-25.96-31.98-40.97-16.97zM461.64 256l45.64-45.64c6.3-6.3 6.3-16.52 0-22.82l-22.82-22.82c-6.3-6.3-16.52-6.3-22.82 0L416 210.36l-45.64-45.64c-6.3-6.3-16.52-6.3-22.82 0l-22.82 22.82c-6.3 6.3-6.3 16.52 0 22.82L370.36 256l-45.63 45.63c-6.3 6.3-6.3 16.52 0 22.82l22.82 22.82c6.3 6.3 16.52 6.3 22.82 0L416 301.64l45.64 45.64c6.3 6.3 16.52 6.3 22.82 0l22.82-22.82c6.3-6.3 6.3-16.52 0-22.82L461.64 256z"/>
</svg>
<svg fill="#fff" aria-hidden="true" data-prefix="fas" data-icon="volume-up" class="dsvg-inline--fa dfa-volume-up dfa-w-18" viewBox="0 0 576 512" id="volume-up" xmlns="http://www.w3.org/2000/svg">
  <path d="M215.03 71.05L126.06 160H24c-13.26 0-24 10.74-24 24v144c0 13.25 10.74 24 24 24h102.06l88.97 88.95c15.03 15.03 40.97 4.47 40.97-16.97V88.02c0-21.46-25.96-31.98-40.97-16.97zm233.32-51.08c-11.17-7.33-26.18-4.24-33.51 6.95-7.34 11.17-4.22 26.18 6.95 33.51 66.27 43.49 105.82 116.6 105.82 195.58 0 78.98-39.55 152.09-105.82 195.58-11.17 7.32-14.29 22.34-6.95 33.5 7.04 10.71 21.93 14.56 33.51 6.95C528.27 439.58 576 351.33 576 256S528.27 72.43 448.35 19.97zM480 256c0-63.53-32.06-121.94-85.77-156.24-11.19-7.14-26.03-3.82-33.12 7.46s-3.78 26.21 7.41 33.36C408.27 165.97 432 209.11 432 256s-23.73 90.03-63.48 115.42c-11.19 7.14-14.5 22.07-7.41 33.36 6.51 10.36 21.12 15.14 33.12 7.46C447.94 377.94 480 319.54 480 256zm-141.77-76.87c-11.58-6.33-26.19-2.16-32.61 9.45-6.39 11.61-2.16 26.2 9.45 32.61C327.98 228.28 336 241.63 336 256c0 14.38-8.02 27.72-20.92 34.81-11.61 6.41-15.84 21-9.45 32.61 6.43 11.66 21.05 15.8 32.61 9.45 28.23-15.55 45.77-45 45.77-76.88s-17.54-61.32-45.78-76.86z"/>
</svg>
</svg>