<svg viewBox="0 0 576 512" xmlns="http://www.w3.org/2000/svg" xmlns:xlink="http://www.w3.org/1999/xlink">
<style>:root>svg{display:none}:root>svg:target{display:block}</style>
<svg aria-hidden="true" data-prefix="fas" data-icon="volume-down" class="asvg-inline--fa afa-volume-down afa-w-12" viewBox="0 0 576 512" id="volume-down" xmlns="http://www.w3.org/2000/svg">
  <path d="M215.03 72.04L126.06 161H24c-13.26 0-24 10.74-24 24v144c0 13.25 10.74 24 24 24h102.06l88.97 88.95c15.03 15.03 40.97 4.47 40.97-16.97V89.02c0-21.47-25.96-31.98-40.97-16.98zm123.2 108.08c-11.58-6.33-26.19-2.16-32.61 9.45-6.39 11.61-2.16 26.2 9.45 32.61C327.98 229.28 336 242.62 336 257c0 14.38-8.02 27.72-20.92 34.81-11.61 6.41-15.84 21-9.45 32.61 6.43 11.66 21.05 15.8 32.61 9.45 28.23-15.55 45.77-45 45.77-76.88s-17.54-61.32-45.78-76.87z"/>
</svg>
<svg class="bsvg-inline--fa bfa-volume-up bfa-w-18" viewBox="0 0 576 512" id="volume-middle" xmlns="http://www.w3.org/2000/svg">
  <g stroke="null">
    <path d="M212.902 103.71l-88.97 79.22H21.872c-13.26 0-24 9.565-24 21.374v128.247c0 11.8 10.74 21.374 24 21.374h102.06l88.97 79.22c15.03 13.385 40.97 3.98 40.97-15.114V118.824c0-19.112-25.96-28.481-40.97-15.113zm264.97 164.718c0-56.58-32.06-108.6-85.77-139.148-11.19-6.359-26.03-3.402-33.12 6.644s-3.78 23.342 7.41 29.71c39.75 22.613 63.48 61.033 63.48 102.794s-23.73 80.18-63.48 102.793c-11.19 6.359-14.5 19.656-7.41 29.71 6.51 9.227 21.12 13.484 33.12 6.644 53.71-30.547 85.77-82.559 85.77-139.147zm-169.86-60.68c2.121 24.17-27.24-12.604 3.417 17.414 30.658 30.018 22.443 30.468 22.443 43.266 0 12.806-8.02 24.687-20.92 31.001-11.61 5.71-15.84 18.703-9.45 29.043 6.43 10.384 21.05 14.072 32.61 8.416 28.23-13.849 45.77-40.077 45.77-68.47s-17.54-54.611-45.78-68.451l-28.09 7.782z"/>
    <path d="M213.623 102.213l-88.732 79.851H23.104c-13.224 0-23.935 9.64-23.935 21.543v129.255c0 11.893 10.71 21.543 23.935 21.543h101.787l88.732 79.842c14.99 13.49 40.86 4.012 40.86-15.233v-301.56c0-19.271-25.89-28.705-40.86-15.241zm122.87 97.013c-11.549-5.682-26.12-1.939-32.523 8.483-6.373 10.42-2.154 23.517 9.425 29.27 12.875 6.374 20.874 18.348 20.874 31.255 0 12.908-7.999 24.882-20.864 31.246-11.579 5.754-15.798 18.85-9.425 29.271 6.413 10.466 20.994 14.182 32.523 8.482 28.154-13.957 45.647-40.392 45.647-69.008s-17.493-55.041-45.657-68.999z"/>
  </g>
</svg>
<svg aria-hidden="true" data-prefix="fas" data-icon="volume-mute" class="csvg-inline--fa cfa-volume-mute cfa-w-16" viewBox="0 0 576 512" id="volume-mute" xmlns="http://www.w3.org/2000/svg">
  <path d="M215.03 71.05L126.06 160H24c-13.26 0-24 10.74-24 24v144c0 13.25 10.74 24 24 24h102.06l88.97 88.95c15.03 15.03 40.97 4.47 40.97-16.97V88.02c0-21.46-25.96-31.98-40.97-16.97zM461.64 256l45.64-45.64c6.3-6.3 6.3-16.52 0-22.82l-22.82-22.82c-6.3-6.3-16.52-6.3-22.82 0L416 210.36l-45.64-45.64c-6.3-6.3-16.52-6.3-22.82 0l-22.82 22.82c-6.3 6.3-6.3 16.52 0 22.82L370.36 256l-45.63 45.63c-6.3 6.3-6.3 16.52 0 22.82l22.82 22.82c6.3 6.3 16.52 6.3 22.82 0L416 301.64l45.64 45.64c6.3 6.3 16.52 6.3 22.82 0l22.82-22.82c6.3-6.3 6.3-16.52 0-22.82L461.64 256z"/>
</svg>
<svg aria-hidden="true" data-prefix="fas" data-icon="volume-up" class="dsvg-inline--fa dfa-volume-up dfa-w-18" viewBox="0 0 576 512" id="volume-up" xmlns="http://www.w3.org/2000/svg">
  <path d="M215.03 71.05L126.06 160H24c-13.26 0-24 10.74-24 24v144c0 13.25 10.74 24 24 24h102.06l88.97 88.95c15.03 15.03 40.97 4.47 40.97-16.97V88.02c0-21.46-25.96-31.98-40.97-16.97zm233.32-51.08c-11.17-7.33-26.18-4.24-33.51 6.95-7.34 11.17-4.22 26.18 6.95 33.51 66.27 43.49 105.82 116.6 105.82 195.58 0 78.98-39.55 152.09-105.82 195.58-11.17 7.32-14.29 22.34-6.95 33.5 7.04 10.71 21.93 14.56 33.51 6.95C528.27 439.58 576 351.33 576 256S528.27 72.43 448.35 19.97zM480 256c0-63.53-32.06-121.94-85.77-156.24-11.19-7.14-26.03-3.82-33.12 7.46s-3.78 26.21 7.41 33.36C408.27 165.97 432 209.11 432 256s-23.73 90.03-63.48 115.42c-11.19 7.14-14.5 22.07-7.41 33.36 6.51 10.36 21.12 15.14 33.12 7.46C447.94 377.94 480 319.54 480 256zm-141.77-76.87c-11.58-6.33-26.19-2.16-32.61 9.45-6.39 11.61-2.16 26.2 9.45 32.61C327.98 228.28 336 241.63 336 256c0 14.38-8.02 27.72-20.92 34.81-11.61 6.41-15.84 21-9.45 32.61 6.43 11.66 21.05 15.8 32.61 9.45 28.23-15.55 45.77-45 45.77-76.88s-17.54-61.32-45.78-76.86z"/>
</svg>
<svg id="timer" viewBox="0 0 59 65" xmlns="http://www.w3.org/2000/svg">
<path d="M30.4204 36.0929C29.9267 35.6565 29.1671 35.6565 28.7114 36.0929C28.2557 36.5292 28.2557 37.2564 28.7114 37.729C29.1671 38.1653 29.9267 38.1653 30.4204 37.729C30.9141 37.2927 30.9141 36.5655 30.4204 36.0929Z"/>
<path d="M29.5851 12.9316C15.7996 12.9316 4.59644 23.6576 4.59644 36.8924C4.59644 50.1272 15.7996 60.8532 29.6231 60.8532C43.4466 60.8532 54.6497 50.1272 54.6497 36.8924C54.6118 23.6576 43.4086 12.968 29.5851 12.9316ZM28.4078 15.2223C28.4078 14.6042 28.9395 14.0951 29.5851 14.0951C30.2307 14.0951 30.7624 14.6042 30.7624 15.2223V19.8035C30.7624 20.4217 30.2307 20.9307 29.5851 20.9307C28.9395 20.9307 28.4078 20.4217 28.4078 19.8035V15.2223ZM11.7361 38.0195H6.95099C6.30539 38.0195 5.77371 37.5105 5.77371 36.8924C5.77371 36.2743 6.30539 35.7653 6.95099 35.7653H11.7361C12.3817 35.7653 12.9133 36.2743 12.9133 36.8924C12.9133 37.5105 12.3817 38.0195 11.7361 38.0195ZM30.8004 58.5625C30.8004 59.1807 30.2687 59.6897 29.6231 59.6897C28.9775 59.6897 28.4458 59.1807 28.4458 58.5625V53.9813C28.4458 53.3632 28.9775 52.8541 29.6231 52.8541C30.2687 52.8541 30.8004 53.3632 30.8004 53.9813V58.5625ZM33.1929 36.8924C33.1929 38.6377 31.8257 40.092 30.0408 40.3102C28.218 40.5283 26.547 39.3648 26.1292 37.6923C25.7115 35.9834 26.6989 34.2745 28.4078 33.6928V25.4756C28.4078 24.8575 28.9395 24.3485 29.5851 24.3485C30.2307 24.3485 30.7624 24.8575 30.7624 25.4756V33.6564C30.8763 33.6928 30.9903 33.7292 31.1042 33.8019L44.2061 21.2579C44.6619 20.8216 45.4214 20.8216 45.8771 21.2579C46.3328 21.6942 46.3328 22.4214 45.8771 22.8577L32.8131 35.438C33.041 35.8744 33.1929 36.3834 33.1929 36.8924ZM52.2572 38.0195H47.4721C46.8265 38.0195 46.2949 37.5105 46.2949 36.8924C46.2949 36.2743 46.8265 35.7653 47.4721 35.7653H52.2572C52.9028 35.7653 53.4345 36.2743 53.4345 36.8924C53.4345 37.5105 52.9028 38.0195 52.2572 38.0195Z"/>
<path d="M31.9016 9.6237C31.256 9.58735 30.7623 9.04196 30.8002 8.38749C30.8002 8.38749 30.8002 8.38749 30.8002 8.35113V3.80622C30.8002 3.18811 31.3319 2.67908 31.9775 2.67908H33.1548C33.4586 2.67908 33.7624 2.57 33.9903 2.35185C34.2181 2.13369 34.3701 1.84282 34.3701 1.55194C34.3701 0.933835 33.8384 0.424805 33.1928 0.424805H26.0152C25.7114 0.424805 25.4075 0.533883 25.1797 0.752038C24.9518 0.970194 24.7999 1.26107 24.7999 1.55194C24.7999 2.17005 25.3316 2.67908 25.9772 2.67908H27.1545C27.8001 2.67908 28.3318 3.18811 28.3318 3.80622V8.38749C28.3697 9.0056 27.876 9.55099 27.2304 9.6237C22.3694 9.9873 17.6603 11.5507 13.5968 14.1686C13.5588 14.205 13.4829 14.205 13.4449 14.2413C13.4069 14.2777 13.3689 14.2777 13.331 14.2777C13.217 14.3141 13.0651 14.3504 12.9132 14.3504C12.7613 14.3504 12.6474 14.3141 12.5334 14.2777C12.4955 14.2777 12.4955 14.2777 12.4575 14.2413C12.3436 14.205 12.2296 14.1323 12.1157 14.0232C12.1157 14.0232 12.1157 14.0232 12.0777 14.0232L9.30542 11.369C9.26744 11.3326 9.22947 11.2599 9.19149 11.2235C9.11554 11.1508 9.07756 11.0781 9.03958 11.0054C9.03958 10.969 9.00161 10.8963 9.00161 10.8599C8.96363 10.7872 8.96363 10.6781 8.96363 10.6054C8.96363 10.4963 9.00161 10.4236 9.00161 10.3509C9.00161 10.3145 9.00161 10.2418 9.03958 10.2055C9.07756 10.1327 9.11554 10.06 9.19149 10.0237C9.22947 9.95094 9.26744 9.91458 9.30542 9.84186C9.76114 9.40555 9.76114 8.67836 9.30542 8.24205C9.07756 8.0239 8.77375 7.91482 8.46993 7.91482C8.16612 7.91482 7.8623 8.0239 7.63444 8.24205L4.25452 11.478C3.7988 11.9143 3.7988 12.6415 4.25452 13.0778C4.48238 13.296 4.78619 13.4051 5.09 13.4051C5.39382 13.4051 5.69763 13.296 5.92549 13.0778C6.03942 12.9688 6.15335 12.896 6.26728 12.8597C6.53312 12.7506 6.83693 12.7142 7.10277 12.8233C7.29265 12.8597 7.44456 12.9688 7.59647 13.0778L9.989 15.3685C10.027 15.4048 10.065 15.4776 10.1029 15.5503C10.1409 15.623 10.1789 15.6957 10.2169 15.7321C10.2548 15.8048 10.2548 15.8775 10.2548 15.9502C10.2928 16.0229 10.2928 16.0957 10.2928 16.1684C10.2928 16.2411 10.2548 16.3138 10.2548 16.3865C10.2548 16.4593 10.2169 16.532 10.2169 16.6047C10.1789 16.6774 10.1409 16.7138 10.1029 16.7865C10.065 16.8592 10.027 16.8956 9.989 16.9683C0.115055 25.8036 -1.93569 40.0564 5.05203 51.146C12.0397 62.2356 26.1671 67.1077 38.9273 62.8173C51.6874 58.5633 59.5866 46.3102 57.8776 33.4754C56.2446 20.5679 45.3453 10.6418 31.9016 9.6237ZM29.585 63.1446C14.4323 63.1446 2.1658 51.4005 2.1658 36.8932C2.1658 22.3858 14.4323 10.6418 29.585 10.6418C44.7377 10.6418 57.0042 22.3858 57.0042 36.8932C57.0042 51.3642 44.7377 63.1082 29.585 63.1446Z"/>
</svg>
</svg>