<svg>
  <symbol id="welcome-arrow" width="28" height="8" viewBox="0 0 28 8" xmlns="http://www.w3.org/2000/svg">
    <path d="M5.34104 8C3.64162 6.31339 1.86127 5.08262 0 4.30769V3.69231C1.86127 2.89459 3.64162 1.66382 5.34104 0H6.75723C5.94798 1.4359 5.1657 2.52991 4.4104 3.28205H28V4.71795H4.4104C5.1657 5.47009 5.94798 6.5641 6.75723 8H5.34104Z" fill="white"/>
  </symbol>
  <symbol id="volume" width="36" height="30" viewBox="0 0 36 30" xmlns="http://www.w3.org/2000/svg">
    <path d="M18.3326 0C17.8816 0 17.4905 0.156374 17.1604 0.469123L8.48928 8.68426H1.66737C1.21531 8.68426 0.825273 8.84064 0.495164 9.15339C0.165055 9.46614 0 9.83665 0 10.2639V19.7361C0 20.1633 0.165055 20.5339 0.495164 20.8466C0.825273 21.1594 1.21636 21.3157 1.66737 21.3157H8.48928L17.1604 29.5309C17.4905 29.8436 17.8806 30 18.3326 30C18.7847 30 19.1747 29.8436 19.5048 29.5309C19.8349 29.2181 20 28.8486 20 28.4203V1.57968C20 1.15239 19.8349 0.781873 19.5059 0.469123C19.1768 0.156374 18.7857 0 18.3337 0H18.3326Z"/>
    <path d="M28.0399 18.515C28.7419 17.434 29.0929 16.266 29.0929 15.01C29.0929 13.754 28.7419 12.582 28.0399 11.492C27.3379 10.402 26.4099 9.63396 25.2529 9.18796C25.0879 9.10596 24.8809 9.06396 24.6339 9.06396C24.2049 9.06396 23.8329 9.21697 23.5189 9.52197C23.2049 9.82897 23.0479 10.203 23.0479 10.649C23.0479 10.996 23.1469 11.289 23.3459 11.528C23.5449 11.767 23.7829 11.974 24.0639 12.147C24.3439 12.32 24.6249 12.51 24.9059 12.717C25.1869 12.924 25.4259 13.216 25.6239 13.596C25.8219 13.976 25.9209 14.447 25.9209 15.008C25.9209 15.569 25.8219 16.04 25.6239 16.42C25.4259 16.8 25.1869 17.093 24.9059 17.299C24.6249 17.505 24.3439 17.696 24.0639 17.869C23.7829 18.042 23.5439 18.249 23.3459 18.488C23.1479 18.727 23.0479 19.021 23.0479 19.367C23.0479 19.813 23.2059 20.188 23.5189 20.494C23.8329 20.798 24.2039 20.953 24.6339 20.953C24.8809 20.953 25.0879 20.912 25.2529 20.829C26.4089 20.366 27.3379 19.594 28.0399 18.512V18.515Z"/>
    <path d="M33.8744 22.1208C35.2915 19.9463 36 17.5714 36 14.999C36 12.4276 35.2915 10.0547 33.8744 7.87713C32.4574 5.70262 30.5822 4.11727 28.2497 3.12618C28.0337 3.04274 27.8167 3 27.5997 3C27.1667 3 26.7913 3.15976 26.4744 3.47927C26.1574 3.79878 26 4.17629 26 4.61384C26 5.26914 26.325 5.76469 26.975 6.1015C27.9075 6.58891 28.5414 6.95828 28.8744 7.21063C30.1078 8.11829 31.0707 9.25592 31.762 10.6255C32.4534 11.9952 32.7996 13.4523 32.7996 15C32.7996 16.5457 32.4534 18.0038 31.762 19.3745C31.0707 20.7441 30.1078 21.8817 28.8744 22.7894C28.5414 23.0417 27.9075 23.4111 26.975 23.8985C26.325 24.2353 26 24.7298 26 25.3862C26 25.8227 26.1585 26.2012 26.4744 26.5207C26.7903 26.8402 27.1738 27 27.6239 27C27.8238 27 28.0327 26.9573 28.2487 26.8738C30.5811 25.8817 32.4574 24.2984 33.8734 22.1219L33.8744 22.1208Z"/>
  </symbol>
  <symbol id="play" width="23" height="30" viewBox="0 0 23 30" xmlns="http://www.w3.org/2000/svg">
    <path d="M23 15.0051L0 0C0 22.6144 0 11.5158 0 30L23 15.0051Z"/>
  </symbol>
  <symbol id="pause" width="21" height="30" viewBox="0 0 21 30" xmlns="http://www.w3.org/2000/svg">
    <path d="M8 29.0471V0.944802C8 0.421605 7.55026 0 6.98347 0H1.01653C0.449742 0 0 0.421605 0 0.944802V29.0471C0 29.5703 0.449742 30 1.01653 30H6.98347C7.55026 30 8 29.5784 8 29.0471Z"/>
    <path d="M19.9835 0H14.0165C13.4584 0 13 0.421605 13 0.944802V29.0471C13 29.5703 13.4497 30 14.0165 30H19.9835C20.5416 30 21 29.5784 21 29.0471V0.944802C21 0.421605 20.5503 0 19.9835 0Z"/>
  </symbol>
  <symbol id="mute" width="36" height="30" viewBox="0 0 36 30" xmlns="http://www.w3.org/2000/svg">
    <path d="M32.2053 15L35.6703 11.535C35.8901 11.3152 36 11.0474 36 10.7337C36 10.4199 35.8901 10.1522 35.6703 9.93234L34.0677 8.32972C33.8478 8.10991 33.5801 8 33.2663 8C32.9526 8 32.6848 8.10991 32.465 8.32972L29 11.7947L25.535 8.32972C25.3152 8.10991 25.0474 8 24.7337 8C24.4199 8 24.1522 8.10991 23.9323 8.32972L22.3297 9.93234C22.1099 10.1522 22 10.4199 22 10.7337C22 11.0474 22.1099 11.3152 22.3297 11.535L25.7947 15L22.3297 18.465C22.1099 18.6848 22 18.9526 22 19.2663C22 19.5801 22.1099 19.8478 22.3297 20.0677L23.9323 21.6703C24.1522 21.8901 24.4199 22 24.7337 22C25.0474 22 25.3152 21.8901 25.535 21.6703L29 18.2053L32.465 21.6703C32.6848 21.8901 32.9516 22 33.2663 22C33.5811 22 33.8478 21.8901 34.0677 21.6703L35.6703 20.0677C35.8901 19.8478 36 19.5801 36 19.2663C36 18.9526 35.8901 18.6848 35.6703 18.465L32.2053 15Z"/>
    <path d="M18.3326 0C17.8816 0 17.4905 0.156374 17.1604 0.469123L8.48928 8.68426H1.66737C1.21531 8.68426 0.825273 8.84064 0.495164 9.15339C0.165055 9.46614 0 9.83665 0 10.2639V19.7361C0 20.1633 0.165055 20.5339 0.495164 20.8466C0.825273 21.1594 1.21636 21.3157 1.66737 21.3157H8.48928L17.1604 29.5309C17.4905 29.8436 17.8806 30 18.3326 30C18.7847 30 19.1747 29.8436 19.5048 29.5309C19.8349 29.2181 20 28.8486 20 28.4203V1.57968C20 1.15239 19.8349 0.781873 19.5059 0.469123C19.1768 0.156374 18.7857 0 18.3337 0H18.3326Z"/>
  </symbol>
  <symbol id="fullscreen" width="36" height="36" viewBox="0 0 36 36" xmlns="http://www.w3.org/2000/svg">
    <path d="M31.744 31.7534H23.2432V35.9999H35.9995V23.2402H31.744V31.7534Z"/>
    <path d="M4.25546 23.2402H0V35.9999H12.7563V31.7534H4.25546V23.2402Z"/>
    <path d="M0 12.7597H4.25546V4.25656H12.7563V0H0V12.7597Z"/>
    <path d="M23.2432 0V4.25656H31.744V12.7597H35.9995V0H23.2432Z" />
  </symbol>
  <symbol id="fullscreen_exit" width="36" height="36" viewBox="0 0 36 36" xmlns="http://www.w3.org/2000/svg">
    <path d="M28.2554 7.74495H35.9764V12.8119H23.1874V0.0229492H28.2544V7.74395L28.2554 7.74495ZM23.1884 35.976V23.1869H35.9774V28.2539H28.2564V35.9749H23.1894L23.1884 35.976ZM7.74544 7.74495V0.0239492H12.8124V12.8129H0.0234375V7.74595H7.74444L7.74544 7.74495ZM0.0244375 28.2549V23.1879H12.8134V35.977H7.74644V28.2559H0.0254375L0.0244375 28.2549Z"/>
  </symbol>
  <symbol id="video-arrow" width="10" height="12" viewBox="0 0 10 12" xmlns="http://www.w3.org/2000/svg">
    <path fill-rule="evenodd" clip-rule="evenodd" d="M5.4777 0.219168C5.87773 0.564178 5.94259 1.19347 5.62256 1.62473L2.37578 6.00004L5.62256 10.3753C5.94259 10.8066 5.87773 11.4359 5.4777 11.7809C5.07766 12.1259 4.49394 12.056 4.17391 11.6247L0 6.00004L4.17391 0.375342C4.49394 -0.0559202 5.07766 -0.125842 5.4777 0.219168ZM9.65184 0.219168C10.0519 0.564178 10.1167 1.19347 9.7967 1.62473L6.54992 6.00004L9.7967 10.3753C10.1167 10.8066 10.0519 11.4359 9.65184 11.7809C9.2518 12.1259 8.66808 12.056 8.34805 11.6247L4.17414 6.00004L8.34805 0.375342C8.66808 -0.0559202 9.2518 -0.125842 9.65184 0.219168Z"/>
  </symbol>
</svg>