<svg>
  <symbol id="welcome-arrow" width="28" height="8" viewBox="0 0 28 8" xmlns="http://www.w3.org/2000/svg">
    <path d="M5.34104 8C3.64162 6.31339 1.86127 5.08262 0 4.30769V3.69231C1.86127 2.89459 3.64162 1.66382 5.34104 0H6.75723C5.94798 1.4359 5.1657 2.52991 4.4104 3.28205H28V4.71795H4.4104C5.1657 5.47009 5.94798 6.5641 6.75723 8H5.34104Z" fill="white"/>
  </symbol>
  <symbol id="volume" width="36" height="30" viewBox="0 0 36 30" xmlns="http://www.w3.org/2000/svg">
    <path d="M18.3326 0C17.8816 0 17.4905 0.156374 17.1604 0.469123L8.48928 8.68426H1.66737C1.21531 8.68426 0.825273 8.84064 0.495164 9.15339C0.165055 9.46614 0 9.83665 0 10.2639V19.7361C0 20.1633 0.165055 20.5339 0.495164 20.8466C0.825273 21.1594 1.21636 21.3157 1.66737 21.3157H8.48928L17.1604 29.5309C17.4905 29.8436 17.8806 30 18.3326 30C18.7847 30 19.1747 29.8436 19.5048 29.5309C19.8349 29.2181 20 28.8486 20 28.4203V1.57968C20 1.15239 19.8349 0.781873 19.5059 0.469123C19.1768 0.156374 18.7857 0 18.3337 0H18.3326Z"/>
    <path d="M28.0399 18.515C28.7419 17.434 29.0929 16.266 29.0929 15.01C29.0929 13.754 28.7419 12.582 28.0399 11.492C27.3379 10.402 26.4099 9.63396 25.2529 9.18796C25.0879 9.10596 24.8809 9.06396 24.6339 9.06396C24.2049 9.06396 23.8329 9.21697 23.5189 9.52197C23.2049 9.82897 23.0479 10.203 23.0479 10.649C23.0479 10.996 23.1469 11.289 23.3459 11.528C23.5449 11.767 23.7829 11.974 24.0639 12.147C24.3439 12.32 24.6249 12.51 24.9059 12.717C25.1869 12.924 25.4259 13.216 25.6239 13.596C25.8219 13.976 25.9209 14.447 25.9209 15.008C25.9209 15.569 25.8219 16.04 25.6239 16.42C25.4259 16.8 25.1869 17.093 24.9059 17.299C24.6249 17.505 24.3439 17.696 24.0639 17.869C23.7829 18.042 23.5439 18.249 23.3459 18.488C23.1479 18.727 23.0479 19.021 23.0479 19.367C23.0479 19.813 23.2059 20.188 23.5189 20.494C23.8329 20.798 24.2039 20.953 24.6339 20.953C24.8809 20.953 25.0879 20.912 25.2529 20.829C26.4089 20.366 27.3379 19.594 28.0399 18.512V18.515Z"/>
    <path d="M33.8744 22.1208C35.2915 19.9463 36 17.5714 36 14.999C36 12.4276 35.2915 10.0547 33.8744 7.87713C32.4574 5.70262 30.5822 4.11727 28.2497 3.12618C28.0337 3.04274 27.8167 3 27.5997 3C27.1667 3 26.7913 3.15976 26.4744 3.47927C26.1574 3.79878 26 4.17629 26 4.61384C26 5.26914 26.325 5.76469 26.975 6.1015C27.9075 6.58891 28.5414 6.95828 28.8744 7.21063C30.1078 8.11829 31.0707 9.25592 31.762 10.6255C32.4534 11.9952 32.7996 13.4523 32.7996 15C32.7996 16.5457 32.4534 18.0038 31.762 19.3745C31.0707 20.7441 30.1078 21.8817 28.8744 22.7894C28.5414 23.0417 27.9075 23.4111 26.975 23.8985C26.325 24.2353 26 24.7298 26 25.3862C26 25.8227 26.1585 26.2012 26.4744 26.5207C26.7903 26.8402 27.1738 27 27.6239 27C27.8238 27 28.0327 26.9573 28.2487 26.8738C30.5811 25.8817 32.4574 24.2984 33.8734 22.1219L33.8744 22.1208Z"/>
  </symbol>
  <symbol id="play" width="23" height="30" viewBox="0 0 23 30" xmlns="http://www.w3.org/2000/svg">
    <path d="M23 15.0051L0 0C0 22.6144 0 11.5158 0 30L23 15.0051Z"/>
  </symbol>
  <symbol id="pause" width="21" height="30" viewBox="0 0 21 30" xmlns="http://www.w3.org/2000/svg">
    <path d="M8 29.0471V0.944802C8 0.421605 7.55026 0 6.98347 0H1.01653C0.449742 0 0 0.421605 0 0.944802V29.0471C0 29.5703 0.449742 30 1.01653 30H6.98347C7.55026 30 8 29.5784 8 29.0471Z"/>
    <path d="M19.9835 0H14.0165C13.4584 0 13 0.421605 13 0.944802V29.0471C13 29.5703 13.4497 30 14.0165 30H19.9835C20.5416 30 21 29.5784 21 29.0471V0.944802C21 0.421605 20.5503 0 19.9835 0Z"/>
  </symbol>
  <symbol id="mute" width="36" height="30" viewBox="0 0 36 30" xmlns="http://www.w3.org/2000/svg">
    <path d="M32.2053 15L35.6703 11.535C35.8901 11.3152 36 11.0474 36 10.7337C36 10.4199 35.8901 10.1522 35.6703 9.93234L34.0677 8.32972C33.8478 8.10991 33.5801 8 33.2663 8C32.9526 8 32.6848 8.10991 32.465 8.32972L29 11.7947L25.535 8.32972C25.3152 8.10991 25.0474 8 24.7337 8C24.4199 8 24.1522 8.10991 23.9323 8.32972L22.3297 9.93234C22.1099 10.1522 22 10.4199 22 10.7337C22 11.0474 22.1099 11.3152 22.3297 11.535L25.7947 15L22.3297 18.465C22.1099 18.6848 22 18.9526 22 19.2663C22 19.5801 22.1099 19.8478 22.3297 20.0677L23.9323 21.6703C24.1522 21.8901 24.4199 22 24.7337 22C25.0474 22 25.3152 21.8901 25.535 21.6703L29 18.2053L32.465 21.6703C32.6848 21.8901 32.9516 22 33.2663 22C33.5811 22 33.8478 21.8901 34.0677 21.6703L35.6703 20.0677C35.8901 19.8478 36 19.5801 36 19.2663C36 18.9526 35.8901 18.6848 35.6703 18.465L32.2053 15Z"/>
    <path d="M18.3326 0C17.8816 0 17.4905 0.156374 17.1604 0.469123L8.48928 8.68426H1.66737C1.21531 8.68426 0.825273 8.84064 0.495164 9.15339C0.165055 9.46614 0 9.83665 0 10.2639V19.7361C0 20.1633 0.165055 20.5339 0.495164 20.8466C0.825273 21.1594 1.21636 21.3157 1.66737 21.3157H8.48928L17.1604 29.5309C17.4905 29.8436 17.8806 30 18.3326 30C18.7847 30 19.1747 29.8436 19.5048 29.5309C19.8349 29.2181 20 28.8486 20 28.4203V1.57968C20 1.15239 19.8349 0.781873 19.5059 0.469123C19.1768 0.156374 18.7857 0 18.3337 0H18.3326Z"/>
  </symbol>
  <symbol id="fullscreen" width="36" height="36" viewBox="0 0 36 36" xmlns="http://www.w3.org/2000/svg">
    <path d="M31.744 31.7534H23.2432V35.9999H35.9995V23.2402H31.744V31.7534Z"/>
    <path d="M4.25546 23.2402H0V35.9999H12.7563V31.7534H4.25546V23.2402Z"/>
    <path d="M0 12.7597H4.25546V4.25656H12.7563V0H0V12.7597Z"/>
    <path d="M23.2432 0V4.25656H31.744V12.7597H35.9995V0H23.2432Z" />
  </symbol>
  <symbol id="fullscreen_exit" width="36" height="36" viewBox="0 0 36 36" xmlns="http://www.w3.org/2000/svg">
    <path d="M28.2554 7.74495H35.9764V12.8119H23.1874V0.0229492H28.2544V7.74395L28.2554 7.74495ZM23.1884 35.976V23.1869H35.9774V28.2539H28.2564V35.9749H23.1894L23.1884 35.976ZM7.74544 7.74495V0.0239492H12.8124V12.8129H0.0234375V7.74595H7.74444L7.74544 7.74495ZM0.0244375 28.2549V23.1879H12.8134V35.977H7.74644V28.2559H0.0254375L0.0244375 28.2549Z"/>
  </symbol>
  <symbol id="video-arrow" width="10" height="12" viewBox="0 0 10 12" xmlns="http://www.w3.org/2000/svg">
    <path fill-rule="evenodd" clip-rule="evenodd" d="M5.4777 0.219168C5.87773 0.564178 5.94259 1.19347 5.62256 1.62473L2.37578 6.00004L5.62256 10.3753C5.94259 10.8066 5.87773 11.4359 5.4777 11.7809C5.07766 12.1259 4.49394 12.056 4.17391 11.6247L0 6.00004L4.17391 0.375342C4.49394 -0.0559202 5.07766 -0.125842 5.4777 0.219168ZM9.65184 0.219168C10.0519 0.564178 10.1167 1.19347 9.7967 1.62473L6.54992 6.00004L9.7967 10.3753C10.1167 10.8066 10.0519 11.4359 9.65184 11.7809C9.2518 12.1259 8.66808 12.056 8.34805 11.6247L4.17414 6.00004L8.34805 0.375342C8.66808 -0.0559202 9.2518 -0.125842 9.65184 0.219168Z"/>
  </symbol>
  <symbol id="youtube" width="23" height="16" viewBox="0 0 23 16" xmlns="http://www.w3.org/2000/svg">
    <path d="M9.03 11.38V4.62L14.97 8L9.03 11.38ZM22.23 2.5C22.1026 2.01772 21.8508 1.57733 21.4998 1.22285C21.1488 0.868375 20.711 0.612223 20.23 0.48C18.46 2.98023e-08 11.35 0 11.35 0C11.35 0 4.25 2.98023e-08 2.48 0.48C1.99901 0.612223 1.56115 0.868375 1.21018 1.22285C0.859213 1.57733 0.607431 2.01772 0.48 2.5C2.98023e-08 4.28 0 8 0 8C0 8 2.98023e-08 11.72 0.47 13.5C0.598299 13.9835 0.851586 14.4247 1.20441 14.7793C1.55723 15.1338 1.99717 15.3893 2.48 15.52C4.25 16 11.36 16 11.36 16C11.36 16 18.46 16 20.23 15.52C20.711 15.3878 21.1488 15.1316 21.4998 14.7771C21.8508 14.4227 22.1026 13.9823 22.23 13.5C22.71 11.72 22.71 8 22.71 8C22.71 8 22.71 4.28 22.24 2.5H22.23Z"/>
  </symbol>
  <symbol id="twitter" width="20" height="17" viewBox="0 0 20 17" xmlns="http://www.w3.org/2000/svg">
    <path d="M20 1.88C19.25 2.25 18.5 2.38 17.62 2.5C18.5 2 19.12 1.25 19.37 0.25C18.5606 0.731306 17.6743 1.06959 16.75 1.25C15.9485 0.46227 14.8737 0.0144601 13.75 0C11.62 0 9.75 1.88 9.75 4.13C9.75 4.5 9.75 4.75 9.88 5C8.24216 4.93823 6.63643 4.52707 5.17046 3.79408C3.70448 3.0611 2.41212 2.02321 1.38 0.75C1.00812 1.39563 0.834247 2.13634 0.88 2.88C0.891623 3.55196 1.06825 4.21077 1.39434 4.79842C1.72043 5.38608 2.18597 5.88456 2.75 6.25C2.12 6.25 1.5 6 0.87 5.75C0.87 7.75 2.25 9.38 4.12 9.75C3.75 9.88 3.37 9.88 3 9.88C2.75 9.88 2.5 9.88 2.25 9.75C2.75 11.38 4.25 12.63 6.13 12.63C4.67779 13.7963 2.8622 14.4156 1 14.38H0C1.87496 15.5591 4.03554 16.2056 6.25 16.25C13.75 16.25 17.88 10 17.88 4.62V4.12C18.7387 3.53355 19.4617 2.76969 20 1.88Z"/>
  </symbol>
  <symbol id="pinterest" width="20" height="20" viewBox="0 0 20 20" xmlns="http://www.w3.org/2000/svg">
    <path d="M10.0002 0C7.67571 0.00823729 5.42667 0.826025 3.63977 2.31277C1.85286 3.79952 0.63972 5.86234 0.208905 8.1466C-0.221909 10.4309 0.156518 12.7939 1.27913 14.8293C2.40174 16.8648 4.1984 18.4456 6.36023 19.3C6.26023 18.51 6.19023 17.3 6.39023 16.43L7.56023 11.46C7.56023 11.46 7.26023 10.86 7.26023 9.98C7.26023 8.59 8.07023 7.56 9.08023 7.56C9.93023 7.56 10.3502 8.2 10.3502 8.96C10.3502 9.82 9.80023 11.1 9.51023 12.29C9.27023 13.29 10.0102 14.1 11.0002 14.1C12.7802 14.1 14.1402 12.23 14.1402 9.53C14.1402 7.13 12.4202 5.47 9.96023 5.47C9.37582 5.44433 8.79227 5.53734 8.2448 5.74342C7.69733 5.94951 7.19729 6.26438 6.77487 6.66904C6.35245 7.07371 6.01641 7.55977 5.78702 8.09789C5.55763 8.63601 5.43966 9.21503 5.44023 9.8C5.44023 10.66 5.77023 11.58 6.18023 12.08C6.26023 12.18 6.27023 12.27 6.24023 12.37L5.96023 13.5C5.92023 13.68 5.81023 13.73 5.63023 13.64C4.37023 13.05 3.59023 11.24 3.59023 9.76C3.59023 6.61 5.89023 3.72 10.2102 3.72C13.6702 3.72 16.3802 6.18 16.3802 9.49C16.3802 12.94 14.2002 15.71 11.1802 15.71C10.1802 15.71 9.22023 15.18 8.90023 14.56L8.27023 16.93C7.97509 17.8577 7.55811 18.7421 7.03023 19.56C8.40406 19.9816 9.85261 20.1021 11.2772 19.9133C12.7018 19.7245 14.069 19.2309 15.2856 18.4661C16.5023 17.7014 17.5398 16.6833 18.3275 15.4814C19.1152 14.2795 19.6346 12.9219 19.8504 11.5011C20.0661 10.0804 19.9731 8.62979 19.5776 7.24822C19.1822 5.86664 18.4936 4.58652 17.5588 3.49506C16.6241 2.40359 15.465 1.52642 14.1607 0.923296C12.8563 0.320168 11.4373 0.00525257 10.0002 0Z"/>
  </symbol>
  <symbol id="instagram" width="21" height="20" viewBox="0 0 21 20" xmlns="http://www.w3.org/2000/svg">
    <path d="M12.0202 0C13.8202 0 14.2002 0.0199999 15.1202 0.0599999C16.1802 0.11 16.9102 0.28 17.5402 0.53C18.2002 0.78 18.7602 1.13 19.3102 1.68C19.8702 2.23 20.2102 2.79 20.4702 3.45C20.7202 4.08 20.8802 4.81 20.9302 5.88C20.9802 6.83 20.9902 7.2 20.9902 9.2V10.8C20.9902 12.8 20.9802 13.17 20.9302 14.12C20.9144 14.9468 20.7589 15.7651 20.4702 16.54C20.2102 17.2 19.8702 17.76 19.3202 18.31C18.7602 18.87 18.2002 19.21 17.5402 19.47C16.9102 19.72 16.1802 19.88 15.1202 19.93C14.1702 19.98 13.7902 19.99 11.7902 19.99H10.2002C8.20015 19.99 7.83015 19.98 6.87015 19.93C6.04333 19.9141 5.22515 19.7586 4.45015 19.47C3.78376 19.2195 3.17981 18.8271 2.68015 18.32C2.16796 17.8186 1.77199 17.211 1.52015 16.54C1.23177 15.765 1.07626 14.9468 1.06015 14.12C1.01113 13.0874 0.991123 12.0537 1.00015 11.02V8.97C1.00015 7.17 1.02015 6.79 1.06015 5.87C1.11015 4.81 1.28015 4.08 1.52015 3.45C1.78015 2.79 2.12015 2.23 2.68015 1.68C3.17533 1.16743 3.78059 0.774176 4.45015 0.53C5.22461 0.238206 6.04278 0.079305 6.87015 0.0599999C7.79015 0.0199999 8.17015 0 9.97015 0H12.0202ZM12.0402 1.8H9.95015C8.22015 1.8 7.85015 1.82 6.95015 1.86C5.98015 1.9 5.45015 2.06 5.10015 2.2C4.63015 2.38 4.30015 2.6 3.95015 2.95C3.60015 3.3 3.38015 3.63 3.20015 4.1C3.07015 4.45 2.90015 4.98 2.86015 5.96C2.82015 6.86 2.80015 7.22 2.80015 8.96V11.04C2.80015 12.78 2.82015 13.14 2.86015 14.04C2.90015 15.01 3.06015 15.54 3.20015 15.89C3.38015 16.36 3.60015 16.69 3.95015 17.04C4.30015 17.39 4.63015 17.61 5.10015 17.79C5.45015 17.93 5.98015 18.09 6.96015 18.13C7.93015 18.18 8.28015 18.19 10.4402 18.19H11.5502C13.7202 18.19 14.0602 18.18 15.0402 18.13C16.0102 18.09 16.5402 17.93 16.8902 17.79C17.3602 17.61 17.6902 17.39 18.0402 17.04C18.3902 16.69 18.6102 16.36 18.7902 15.89C18.9302 15.54 19.0902 15.01 19.1302 14.04C19.1802 13.06 19.1902 12.72 19.1902 10.55V9.45C19.1902 7.28 19.1802 6.93 19.1302 5.95C19.0902 4.98 18.9302 4.45 18.7902 4.1C18.6292 3.66543 18.373 3.27246 18.0402 2.95C17.7179 2.61692 17.3249 2.3606 16.8902 2.2C16.2971 1.98317 15.6716 1.86822 15.0402 1.86C14.0409 1.81227 13.0405 1.79226 12.0402 1.8ZM11.0002 4.86C12.362 4.86 13.6681 5.40101 14.6311 6.36401C15.5941 7.32701 16.1352 8.63311 16.1352 9.995C16.1352 11.3569 15.5941 12.663 14.6311 13.626C13.6681 14.589 12.362 15.13 11.0002 15.13C9.63827 15.13 8.33216 14.589 7.36916 13.626C6.40616 12.663 5.86515 11.3569 5.86515 9.995C5.86515 8.63311 6.40616 7.32701 7.36916 6.36401C8.33216 5.40101 9.63827 4.86 11.0002 4.86ZM11.0002 6.66C10.1157 6.66 9.26739 7.01136 8.64195 7.6368C8.01652 8.26223 7.66515 9.1105 7.66515 9.995C7.66515 10.8795 8.01652 11.7278 8.64195 12.3532C9.26739 12.9786 10.1157 13.33 11.0002 13.33C11.8847 13.33 12.7329 12.9786 13.3584 12.3532C13.9838 11.7278 14.3352 10.8795 14.3352 9.995C14.3352 9.1105 13.9838 8.26223 13.3584 7.6368C12.7329 7.01136 11.8847 6.66 11.0002 6.66ZM16.3302 3.46C16.6484 3.46 16.9536 3.58643 17.1787 3.81147C17.4037 4.03652 17.5302 4.34174 17.5302 4.66C17.5302 4.97826 17.4037 5.28348 17.1787 5.50853C16.9536 5.73357 16.6484 5.86 16.3302 5.86C16.0119 5.86 15.7067 5.73357 15.4816 5.50853C15.2566 5.28348 15.1302 4.97826 15.1302 4.66C15.1302 4.34174 15.2566 4.03652 15.4816 3.81147C15.7067 3.58643 16.0119 3.46 16.3302 3.46Z"/>
  </symbol>
  <symbol id="facebook" width="13" height="20" viewBox="0 0 13 20" xmlns="http://www.w3.org/2000/svg">
    <path d="M3.78 20L3.75 11.25H0V7.5H3.75V5C3.75 1.63 5.84 0 8.85 0C10.29 0 11.53 0.1 11.89 0.15V3.68H9.8C8.17 3.68 7.85 4.46 7.85 5.6V7.5H12.5L11.25 11.25H7.85V20H3.78Z"/>
  </symbol>
</svg>